<mxfile host="app.diagrams.net" modified="2024-02-05T16:32:43.214Z" agent="Mozilla/5.0 (X11; Linux x86_64) AppleWebKit/537.36 (KHTML, like Gecko) Chrome/114.0.0.0 Safari/537.36" etag="kDTGtWvGwr60Cmz99Eyg" version="23.1.1" type="github">
  <diagram name="Page-1" id="XPaq7JZj0-jIex3fcZ3i">
    <mxGraphModel dx="1730" dy="445" grid="1" gridSize="10" guides="1" tooltips="1" connect="1" arrows="1" fold="1" page="1" pageScale="1" pageWidth="850" pageHeight="1100" math="0" shadow="0">
      <root>
        <mxCell id="0" />
        <mxCell id="1" parent="0" />
        <mxCell id="OlIiY-ON0yqqLOPKXG6p-12" style="edgeStyle=orthogonalEdgeStyle;rounded=0;orthogonalLoop=1;jettySize=auto;html=1;exitX=0.5;exitY=1;exitDx=0;exitDy=0;entryX=0.5;entryY=1;entryDx=0;entryDy=0;" edge="1" parent="1" source="OlIiY-ON0yqqLOPKXG6p-11" target="OlIiY-ON0yqqLOPKXG6p-10">
          <mxGeometry relative="1" as="geometry" />
        </mxCell>
        <mxCell id="OlIiY-ON0yqqLOPKXG6p-9" style="rounded=0;orthogonalLoop=1;jettySize=auto;html=1;startArrow=none;startFill=0;endArrow=none;endFill=0;" edge="1" parent="1" source="OlIiY-ON0yqqLOPKXG6p-1" target="OlIiY-ON0yqqLOPKXG6p-7">
          <mxGeometry relative="1" as="geometry" />
        </mxCell>
        <mxCell id="OlIiY-ON0yqqLOPKXG6p-1" value="PERSONNEL" style="swimlane;childLayout=stackLayout;horizontal=1;startSize=50;horizontalStack=0;rounded=1;fontSize=14;fontStyle=0;strokeWidth=2;resizeParent=0;resizeLast=1;shadow=0;dashed=0;align=center;arcSize=4;whiteSpace=wrap;html=1;" vertex="1" parent="1">
          <mxGeometry x="-60" y="270" width="170" height="120" as="geometry" />
        </mxCell>
        <mxCell id="OlIiY-ON0yqqLOPKXG6p-2" value="&lt;u&gt;id_Personnel&lt;br&gt;&lt;/u&gt;nom_Personnel&lt;br&gt;prenom_personnel&lt;br&gt;specialte" style="align=left;strokeColor=none;fillColor=none;spacingLeft=4;fontSize=12;verticalAlign=top;resizable=0;rotatable=0;part=1;html=1;" vertex="1" parent="OlIiY-ON0yqqLOPKXG6p-1">
          <mxGeometry y="50" width="170" height="70" as="geometry" />
        </mxCell>
        <mxCell id="OlIiY-ON0yqqLOPKXG6p-7" value="suivre" style="ellipse;whiteSpace=wrap;html=1;align=center;" vertex="1" parent="1">
          <mxGeometry x="325" y="300" width="105" height="40" as="geometry" />
        </mxCell>
        <mxCell id="OlIiY-ON0yqqLOPKXG6p-10" value="Patient" style="swimlane;childLayout=stackLayout;horizontal=1;startSize=50;horizontalStack=0;rounded=1;fontSize=14;fontStyle=0;strokeWidth=2;resizeParent=0;resizeLast=1;shadow=0;dashed=0;align=center;arcSize=4;whiteSpace=wrap;html=1;" vertex="1" parent="1">
          <mxGeometry x="710" y="260" width="170" height="210" as="geometry" />
        </mxCell>
        <mxCell id="OlIiY-ON0yqqLOPKXG6p-11" value="&lt;u&gt;id_Patient&lt;br&gt;&lt;/u&gt;nom_Patient&lt;br&gt;prenom_patient&lt;br&gt;date_naissance&lt;br&gt;num_telephone&lt;br&gt;genre&lt;br&gt;email&lt;br&gt;password" style="align=left;strokeColor=none;fillColor=none;spacingLeft=4;fontSize=12;verticalAlign=top;resizable=0;rotatable=0;part=1;html=1;" vertex="1" parent="OlIiY-ON0yqqLOPKXG6p-10">
          <mxGeometry y="50" width="170" height="160" as="geometry" />
        </mxCell>
        <mxCell id="OlIiY-ON0yqqLOPKXG6p-13" style="edgeStyle=orthogonalEdgeStyle;rounded=0;orthogonalLoop=1;jettySize=auto;html=1;entryX=-0.018;entryY=0.063;entryDx=0;entryDy=0;entryPerimeter=0;endArrow=none;endFill=0;" edge="1" parent="1" source="OlIiY-ON0yqqLOPKXG6p-7" target="OlIiY-ON0yqqLOPKXG6p-11">
          <mxGeometry relative="1" as="geometry" />
        </mxCell>
        <mxCell id="OlIiY-ON0yqqLOPKXG6p-20" style="rounded=0;orthogonalLoop=1;jettySize=auto;html=1;exitX=0;exitY=0.25;exitDx=0;exitDy=0;entryX=1;entryY=1;entryDx=0;entryDy=0;endArrow=none;endFill=0;" edge="1" parent="1" source="OlIiY-ON0yqqLOPKXG6p-14" target="OlIiY-ON0yqqLOPKXG6p-19">
          <mxGeometry relative="1" as="geometry" />
        </mxCell>
        <mxCell id="OlIiY-ON0yqqLOPKXG6p-14" value="DossierMedical" style="swimlane;childLayout=stackLayout;horizontal=1;startSize=50;horizontalStack=0;rounded=1;fontSize=14;fontStyle=0;strokeWidth=2;resizeParent=0;resizeLast=1;shadow=0;dashed=0;align=center;arcSize=4;whiteSpace=wrap;html=1;" vertex="1" parent="1">
          <mxGeometry x="320" y="530" width="170" height="80" as="geometry" />
        </mxCell>
        <mxCell id="OlIiY-ON0yqqLOPKXG6p-15" value="&lt;u&gt;num_dossier&lt;br&gt;&lt;br&gt;&lt;/u&gt;" style="align=left;strokeColor=none;fillColor=none;spacingLeft=4;fontSize=12;verticalAlign=top;resizable=0;rotatable=0;part=1;html=1;" vertex="1" parent="OlIiY-ON0yqqLOPKXG6p-14">
          <mxGeometry y="50" width="170" height="30" as="geometry" />
        </mxCell>
        <mxCell id="OlIiY-ON0yqqLOPKXG6p-18" style="rounded=0;orthogonalLoop=1;jettySize=auto;html=1;exitX=0;exitY=0.5;exitDx=0;exitDy=0;endArrow=none;endFill=0;" edge="1" parent="1" source="OlIiY-ON0yqqLOPKXG6p-16" target="OlIiY-ON0yqqLOPKXG6p-14">
          <mxGeometry relative="1" as="geometry" />
        </mxCell>
        <mxCell id="OlIiY-ON0yqqLOPKXG6p-16" value="possède" style="ellipse;whiteSpace=wrap;html=1;align=center;" vertex="1" parent="1">
          <mxGeometry x="550" y="470" width="95" height="40" as="geometry" />
        </mxCell>
        <mxCell id="OlIiY-ON0yqqLOPKXG6p-17" style="rounded=0;orthogonalLoop=1;jettySize=auto;html=1;entryX=-0.018;entryY=0.831;entryDx=0;entryDy=0;entryPerimeter=0;endArrow=none;endFill=0;" edge="1" parent="1" source="OlIiY-ON0yqqLOPKXG6p-16" target="OlIiY-ON0yqqLOPKXG6p-11">
          <mxGeometry relative="1" as="geometry" />
        </mxCell>
        <mxCell id="OlIiY-ON0yqqLOPKXG6p-19" value="règle" style="ellipse;whiteSpace=wrap;html=1;align=center;" vertex="1" parent="1">
          <mxGeometry x="190" y="440" width="70" height="40" as="geometry" />
        </mxCell>
        <mxCell id="OlIiY-ON0yqqLOPKXG6p-22" style="rounded=0;orthogonalLoop=1;jettySize=auto;html=1;exitX=0.988;exitY=0.657;exitDx=0;exitDy=0;entryX=0.5;entryY=0;entryDx=0;entryDy=0;endArrow=none;endFill=0;exitPerimeter=0;" edge="1" parent="1" source="OlIiY-ON0yqqLOPKXG6p-2" target="OlIiY-ON0yqqLOPKXG6p-19">
          <mxGeometry relative="1" as="geometry">
            <Array as="points" />
          </mxGeometry>
        </mxCell>
        <mxCell id="OlIiY-ON0yqqLOPKXG6p-23" value="Facture" style="swimlane;childLayout=stackLayout;horizontal=1;startSize=50;horizontalStack=0;rounded=1;fontSize=14;fontStyle=0;strokeWidth=2;resizeParent=0;resizeLast=1;shadow=0;dashed=0;align=center;arcSize=4;whiteSpace=wrap;html=1;" vertex="1" parent="1">
          <mxGeometry x="1050" y="530" width="170" height="120" as="geometry" />
        </mxCell>
        <mxCell id="OlIiY-ON0yqqLOPKXG6p-24" value="&lt;u&gt;id_facture&lt;br&gt;&lt;br&gt;&lt;/u&gt;" style="align=left;strokeColor=none;fillColor=none;spacingLeft=4;fontSize=12;verticalAlign=top;resizable=0;rotatable=0;part=1;html=1;" vertex="1" parent="OlIiY-ON0yqqLOPKXG6p-23">
          <mxGeometry y="50" width="170" height="70" as="geometry" />
        </mxCell>
        <mxCell id="OlIiY-ON0yqqLOPKXG6p-25" value="element" style="swimlane;childLayout=stackLayout;horizontal=1;startSize=50;horizontalStack=0;rounded=1;fontSize=14;fontStyle=0;strokeWidth=2;resizeParent=0;resizeLast=1;shadow=0;dashed=0;align=center;arcSize=4;whiteSpace=wrap;html=1;" vertex="1" parent="1">
          <mxGeometry x="1382" y="552" width="170" height="120" as="geometry" />
        </mxCell>
        <mxCell id="OlIiY-ON0yqqLOPKXG6p-26" value="&lt;u&gt;id_element&lt;/u&gt;&lt;br&gt;montant&lt;br&gt;descriptio&lt;u&gt;n&lt;/u&gt;" style="align=left;strokeColor=none;fillColor=none;spacingLeft=4;fontSize=12;verticalAlign=top;resizable=0;rotatable=0;part=1;html=1;" vertex="1" parent="OlIiY-ON0yqqLOPKXG6p-25">
          <mxGeometry y="50" width="170" height="70" as="geometry" />
        </mxCell>
        <mxCell id="OlIiY-ON0yqqLOPKXG6p-27" value="MEDECIN" style="swimlane;childLayout=stackLayout;horizontal=1;startSize=50;horizontalStack=0;rounded=1;fontSize=14;fontStyle=0;strokeWidth=2;resizeParent=0;resizeLast=1;shadow=0;dashed=0;align=center;arcSize=4;whiteSpace=wrap;html=1;" vertex="1" parent="1">
          <mxGeometry x="-340" y="620" width="170" height="90" as="geometry" />
        </mxCell>
        <mxCell id="OlIiY-ON0yqqLOPKXG6p-28" value="id_personnel&lt;br&gt;specialite" style="align=left;strokeColor=none;fillColor=none;spacingLeft=4;fontSize=12;verticalAlign=top;resizable=0;rotatable=0;part=1;html=1;" vertex="1" parent="OlIiY-ON0yqqLOPKXG6p-27">
          <mxGeometry y="50" width="170" height="40" as="geometry" />
        </mxCell>
        <mxCell id="OlIiY-ON0yqqLOPKXG6p-29" value="" style="shape=or;whiteSpace=wrap;html=1;direction=north;" vertex="1" parent="1">
          <mxGeometry x="-30" y="510" width="60" height="20" as="geometry" />
        </mxCell>
        <mxCell id="OlIiY-ON0yqqLOPKXG6p-30" style="edgeStyle=orthogonalEdgeStyle;rounded=0;orthogonalLoop=1;jettySize=auto;html=1;entryX=0.353;entryY=1.014;entryDx=0;entryDy=0;entryPerimeter=0;endArrow=block;endFill=1;" edge="1" parent="1" source="OlIiY-ON0yqqLOPKXG6p-29" target="OlIiY-ON0yqqLOPKXG6p-2">
          <mxGeometry relative="1" as="geometry" />
        </mxCell>
        <mxCell id="OlIiY-ON0yqqLOPKXG6p-31" style="rounded=0;orthogonalLoop=1;jettySize=auto;html=1;exitX=1;exitY=0;exitDx=0;exitDy=0;entryX=0;entryY=0.25;entryDx=0;entryDy=0;entryPerimeter=0;endArrow=none;endFill=0;" edge="1" parent="1" source="OlIiY-ON0yqqLOPKXG6p-28" target="OlIiY-ON0yqqLOPKXG6p-29">
          <mxGeometry relative="1" as="geometry" />
        </mxCell>
      </root>
    </mxGraphModel>
  </diagram>
</mxfile>
